<?xml version="1.0" encoding="UTF-8"?>
<svg id="_图层_2" xmlns="http://www.w3.org/2000/svg"
     viewBox="-221.12 -219.56 732.44 729.02">
    <defs>
        <style>
            .cls-1{opacity:.5;}.cls-2{fill:#3996d1;}.cls-2,.cls-3,.cls-4,.cls-5,.cls-6{stroke-width:0px;}.cls-3{fill:none;}.cls-4{fill:#040000;}.cls-7{clip-path:url(#clippath-1);}.cls-8{opacity:.95;stroke:#fff;stroke-miterlimit:10;}.cls-8,.cls-5{fill:#fff;}.cls-9{clip-path:url(#clippath);}.cls-6{fill:#f4f4f4;}
        </style>
        <clipPath id="clippath">
            <rect class="cls-3" x="-221.12" y="-219.56" width="732.44" height="729.02"/>
        </clipPath>
        <clipPath id="clippath-1">
            <rect class="cls-3" x="-221.12" y="-219.56" width="732.44" height="729.02"/>
        </clipPath>
    </defs>
    <g id="_图层_1-2">
        <rect class="cls-5" x="-221.12" y="-219.56" width="732.44" height="729.02"/>
        <g>
            <g>
                <g class="cls-1">
                    <path class="cls-2"
                          d="M61.79,162.3c-15.32,0-27.74-12.42-27.74-27.74v-44.32H-10.27c-15.32,0-27.74-12.42-27.74-27.74s12.42-27.74,27.74-27.74H61.79c15.32,0,27.74,12.42,27.74,27.74v72.06c0,15.32-12.42,27.74-27.74,27.74Z"/>
                </g>
                <g class="cls-1">
                    <path class="cls-2"
                          d="M133.85,90.24H61.79c-15.32,0-27.74-12.42-27.74-27.74V-9.56c0-15.32,12.42-27.74,27.74-27.74s27.74,12.42,27.74,27.74v44.32h44.32c15.32,0,27.74,12.42,27.74,27.74s-12.42,27.74-27.74,27.74Z"/>
                </g>
            </g>
            <path class="cls-8"
                  d="M215.19,178.23s23.04-42.27,42.07-63.64c17.36,20.37,39.4,81.58,39.4,81.58l-14.02-3.78s6.63,1.72,14.46,5.16c7.98,3.51,18.97,7.84,23.69,14.92l7.36,11.1v103.85H-3.65v-102.21s21.04-13.78,40.66-22.34c9.45-4.12,24.78-11.31,24.67-8.11,0,0-21.61,6.53-22.67,5.71s35.27-65.95,61.54-95.33c29.05,23.82,45.33,72.09,45.33,72.09l-22.53,2.38c.12.79,54.1-4.57,108.53,1.77"/>
            <path class="cls-4"
                  d="M-1.06,227.05c-.98,0-1.93-.4-2.71-1.57-1.07-1.61-.64-3.78.97-4.85.33-.22.69-.38,1.06-.48.89-.45,3.4-1.92,5.84-3.34,13.98-8.16,43.07-25.14,57.55-25.69,1.92-.09,3.56,1.43,3.63,3.37.07,1.93-1.44,3.56-3.37,3.63-12.73.48-41.85,17.48-54.28,24.74-2.06,1.2-3.73,2.18-4.91,2.84-1.01.57-2.42,1.36-3.79,1.36ZM2.05,221.6s0,0,0,0c0,0,0,0,0,0ZM.99,220.57c.41.25.78.6,1.07,1.03-.3-.45-.67-.79-1.07-1.03Z"/>
            <path class="cls-4"
                  d="M231.99,183.74c-.1,0-.19,0-.29-.02-41.75-4.87-82.7-2.83-100.19-1.97-2.54.13-4.53.22-5.88.27-2.1.07-4.28.14-4.63-2.17-.21-1.37.73-2.64,2.09-2.85.35-.06.7-.03,1.02.05.91.03,3.82-.12,7.16-.29,17.61-.88,58.86-2.92,101.02,1.99,1.37.16,2.35,1.4,2.19,2.77-.15,1.27-1.23,2.21-2.48,2.21ZM125.4,177.89c.27.33.46.74.53,1.19-.08-.48-.27-.88-.53-1.19Z"/>
            <path class="cls-4"
                  d="M36.04,198.68c-.45-5.4,1.56-9.71,4.13-14.06,2.35-4.15,4.71-8.29,7.16-12.38,7.28-12.32,15.01-24.4,23.22-36.14,8.54-11.93,17.33-23.62,27.99-33.89,1.22-1.18,3.17-1.14,4.35.09,5.35,5.28,10.16,10.85,14.54,16.7,12.89,17.45,22.28,37.61,31.88,56.98,2.08,4.86-5.32,7.39-6.63,2.24-5.83-24.88-23.32-55.51-44.23-70.5,0,0,4.83-.37,4.83-.37-8.31,11.17-15.84,23.14-23.13,35.06-4.89,8.02-9.64,16.12-14.38,24.24-4.34,7.55-11.42,20.04-15.69,27.61-2.01,3.2-4.52,6.05-8,7.81-2.56,1.33-5.82-.51-6.03-3.37h0Z"/>
            <path class="cls-4"
                  d="M212.22,176.43c3.05-9.35,7.8-17.66,12.98-25.87,5.13-8.2,10.55-16.18,16.54-23.83,4.01-5.09,8.24-10.05,13.01-14.6,1.37-1.64,3.98-1.71,5.28.06,7.13,9.68,11.85,19.87,16.91,30.44,8.14,17.24,14.8,35.05,23.12,52.23,1.9,4.21-4.15,7.22-6.33,3.07-2.06-7.5-4.4-14.97-7.24-22.24-4.79-12.21-10.26-24.4-16.44-35.97-3.42-6.5-7.42-13.01-11.84-18.89-1.13-1.41-2.34-2.74-3.49-4.1l5.28.06c-9.12,12.53-17.53,26.16-25.65,39.4-4.9,8.17-9.81,16.27-15.99,23.63-2.5,2.96-7.3.29-6.11-3.39h0Z"/>
            <path class="cls-4"
                  d="M325.23,219.28c-1.13,0-2.24-.55-2.92-1.56-7.07-10.61-31.67-19.55-40.54-22.1-1.86-.53-2.93-2.47-2.4-4.33.53-1.86,2.47-2.93,4.33-2.4,1.4.4,34.49,10.02,44.44,24.94,1.07,1.61.64,3.78-.97,4.85-.6.4-1.27.59-1.94.59Z"/>
            <circle class="cls-4" cx="71.04" cy="247.46" r="17.81"/>
            <ellipse class="cls-4" cx="247.02" cy="242.34" rx="13.69" ry="15.36"/>
            <ellipse class="cls-4" cx="162.38" cy="253.47" rx="59.38" ry="53.42"/>
            <rect class="cls-6" x="140.96" y="228.83" width="4.45" height="8.28" rx="2.23" ry="2.23"
                  transform="translate(286.38 465.95) rotate(-180)"/>
            <rect class="cls-6" x="144.4" y="241.27" width="4.45" height="8.28" rx="2.23" ry="2.23"
                  transform="translate(293.25 490.82) rotate(-180)"/>
            <rect class="cls-6" x="183.13" y="260.37" width="4.45" height="8.28" rx="2.23" ry="2.23"
                  transform="translate(370.71 529.03) rotate(180)"/>
            <rect class="cls-6" x="172.44" y="276.05" width="4.45" height="8.28" rx="2.23" ry="2.23"
                  transform="translate(349.33 560.38) rotate(-180)"/>
            <rect class="cls-6" x="185.71" y="233.2" width="4.45" height="8.28" rx="2.23" ry="2.23"
                  transform="translate(375.87 474.69) rotate(-180)"/>
            <rect class="cls-6" x="172.44" y="223.42" width="4.45" height="8.28" rx="2.23" ry="2.23"
                  transform="translate(349.33 455.12) rotate(-180)"/>
            <rect class="cls-6" x="136.51" y="257.8" width="4.45" height="8.28" rx="2.23" ry="2.23"
                  transform="translate(277.47 523.89) rotate(-180)"/>
            <rect class="cls-6" x="127.85" y="246.31" width="4.45" height="8.28" rx="2.23" ry="2.23"
                  transform="translate(260.15 500.9) rotate(-180)"/>
        </g>
    </g>
</svg>
